<?xml version="1.0" encoding="UTF-8"?>
<svg id="Ebene_1" data-name="Ebene 1" xmlns="http://www.w3.org/2000/svg" viewBox="0 0 2006.91 1994.8">
  <defs>
    <style>
      .cls-1 {
        stroke: #312783;
        stroke-miterlimit: 10;
      }

      .cls-1, .cls-2 {
        fill: none;
      }

      .cls-3 {
        fill: #1d1d1b;
        font-family: Helvetica-52, Helvetica;
        font-size: 18px;
      }

      .cls-2 {
        stroke: #e30613;
        stroke-linecap: round;
        stroke-linejoin: round;
        stroke-width: 1.42px;
      }

      .cls-4 {
        fill: #312783;
      }

      .cls-5 {
        fill: #e30613;
      }

      .cls-6 {
        letter-spacing: -.02em;
      }
    </style>
  </defs>
  <g id="CIRCLE">
    <circle class="cls-2" cx="1794.09" cy="90.04" r="36.85"/>
  </g>
  <g id="CIRCLE-2" data-name="CIRCLE">
    <circle class="cls-2" cx="447.63" cy="160.9" r="8.65"/>
  </g>
  <g id="CIRCLE-3" data-name="CIRCLE">
    <circle class="cls-2" cx="1794.09" cy="231.77" r="36.85"/>
  </g>
  <g id="CIRCLE-4" data-name="CIRCLE">
    <circle class="cls-2" cx="546.85" cy="231.77" r="36.85"/>
  </g>
  <g id="CIRCLE-5" data-name="CIRCLE">
    <circle class="cls-2" cx="546.85" cy="90.04" r="36.85"/>
  </g>
  <g id="CIRCLE-6" data-name="CIRCLE">
    <circle class="cls-2" cx="1893.3" cy="160.9" r="8.65"/>
  </g>
  <g id="LINE">
    <line class="cls-2" x1="1794.09" y1="33.34" x2="546.85" y2="33.34"/>
  </g>
  <g id="ARC">
    <path class="cls-2" d="M546.85,33.34c-70.45,0-127.56,57.11-127.56,127.56s57.11,127.56,127.56,127.56"/>
  </g>
  <g id="LINE-2" data-name="LINE">
    <line class="cls-2" x1="546.85" y1="288.46" x2="1794.09" y2="288.46"/>
  </g>
  <g id="ARC-2" data-name="ARC">
    <path class="cls-2" d="M1794.09,288.46c70.45,0,127.56-57.11,127.56-127.56s-57.11-127.56-127.56-127.56"/>
  </g>
  <g id="ARC-3" data-name="ARC">
    <path class="cls-2" d="M1581.1,540.96c7.83,0,14.17-6.35,14.17-14.17"/>
  </g>
  <g id="LINE-3" data-name="LINE">
    <line class="cls-2" x1="1581.1" y1="540.96" x2="759.06" y2="540.96"/>
  </g>
  <g id="ARC-4" data-name="ARC">
    <path class="cls-2" d="M1595.28,356.71c0-7.83-6.35-14.17-14.17-14.17"/>
  </g>
  <g id="LINE-4" data-name="LINE">
    <line class="cls-2" x1="1595.28" y1="356.71" x2="1595.28" y2="373.72"/>
  </g>
  <g id="ARC-5" data-name="ARC">
    <path class="cls-2" d="M759.06,342.53c-7.83,0-14.17,6.35-14.17,14.17"/>
  </g>
  <g id="LINE-5" data-name="LINE">
    <line class="cls-2" x1="759.06" y1="342.53" x2="872.44" y2="342.53"/>
  </g>
  <g id="ARC-6" data-name="ARC">
    <path class="cls-2" d="M744.88,526.79c0,7.83,6.35,14.17,14.17,14.17"/>
  </g>
  <g id="LINE-6" data-name="LINE">
    <line class="cls-2" x1="744.88" y1="526.79" x2="744.88" y2="458.75"/>
  </g>
  <g id="CIRCLE-7" data-name="CIRCLE">
    <circle class="cls-2" cx="1892.91" cy="441.75" r="8.65"/>
  </g>
  <g id="CIRCLE-8" data-name="CIRCLE">
    <circle class="cls-2" cx="447.24" cy="441.75" r="8.65"/>
  </g>
  <g id="CIRCLE-9" data-name="CIRCLE">
    <circle class="cls-2" cx="546.46" cy="512.61" r="12.05"/>
  </g>
  <g id="CIRCLE-10" data-name="CIRCLE">
    <circle class="cls-2" cx="1793.7" cy="512.61" r="12.05"/>
  </g>
  <g id="CIRCLE-11" data-name="CIRCLE">
    <circle class="cls-2" cx="546.46" cy="370.88" r="12.05"/>
  </g>
  <g id="CIRCLE-12" data-name="CIRCLE">
    <circle class="cls-2" cx="1793.7" cy="370.88" r="12.05"/>
  </g>
  <g id="ARC-7" data-name="ARC">
    <path class="cls-2" d="M546.46,314.19c-70.45,0-127.56,57.11-127.56,127.56s57.11,127.56,127.56,127.56"/>
  </g>
  <g id="LINE-7" data-name="LINE">
    <line class="cls-2" x1="546.46" y1="569.31" x2="1793.7" y2="569.31"/>
  </g>
  <g id="ARC-8" data-name="ARC">
    <path class="cls-2" d="M1793.7,569.31c70.45,0,127.56-57.11,127.56-127.56s-57.11-127.56-127.56-127.56"/>
  </g>
  <g id="LINE-8" data-name="LINE">
    <line class="cls-2" x1="1793.7" y1="314.19" x2="1000" y2="314.19"/>
  </g>
  <g id="LINE-9" data-name="LINE">
    <line class="cls-2" x1="1000" y1="314.19" x2="1000" y2="322.69"/>
  </g>
  <g id="LINE-10" data-name="LINE">
    <line class="cls-2" x1="1000" y1="322.69" x2="1014.17" y2="322.69"/>
  </g>
  <g id="LINE-11" data-name="LINE">
    <line class="cls-2" x1="1014.17" y1="322.69" x2="1014.17" y2="328.64"/>
  </g>
  <g id="LINE-12" data-name="LINE">
    <line class="cls-2" x1="1014.17" y1="328.64" x2="1000" y2="328.64"/>
  </g>
  <g id="LINE-13" data-name="LINE">
    <line class="cls-2" x1="1000" y1="328.64" x2="1000" y2="342.53"/>
  </g>
  <g id="LINE-14" data-name="LINE">
    <line class="cls-2" x1="1000" y1="342.53" x2="1581.1" y2="342.53"/>
  </g>
  <g id="LINE-15" data-name="LINE">
    <line class="cls-2" x1="1595.28" y1="373.72" x2="1720.71" y2="373.72"/>
  </g>
  <g id="ARC-9" data-name="ARC">
    <path class="cls-2" d="M1720.71,373.72c6.26,0,11.34,5.08,11.34,11.34s-5.08,11.34-11.34,11.34"/>
  </g>
  <g id="LINE-16" data-name="LINE">
    <line class="cls-2" x1="1720.71" y1="396.39" x2="1595.28" y2="396.39"/>
  </g>
  <g id="LINE-17" data-name="LINE">
    <line class="cls-2" x1="1595.28" y1="396.39" x2="1595.28" y2="481.43"/>
  </g>
  <g id="LINE-18" data-name="LINE">
    <line class="cls-2" x1="1595.28" y1="481.43" x2="1760.39" y2="481.43"/>
  </g>
  <g id="LINE-19" data-name="LINE">
    <line class="cls-2" x1="1760.39" y1="481.43" x2="1760.39" y2="515.45"/>
  </g>
  <g id="LINE-20" data-name="LINE">
    <line class="cls-2" x1="1760.39" y1="515.45" x2="1595.28" y2="515.45"/>
  </g>
  <g id="LINE-21" data-name="LINE">
    <line class="cls-2" x1="1595.28" y1="515.45" x2="1595.28" y2="526.79"/>
  </g>
  <g id="LINE-22" data-name="LINE">
    <line class="cls-2" x1="744.88" y1="458.75" x2="691.02" y2="458.75"/>
  </g>
  <g id="LINE-23" data-name="LINE">
    <line class="cls-2" x1="691.02" y1="458.75" x2="657.01" y2="458.75"/>
  </g>
  <g id="ARC-10" data-name="ARC">
    <path class="cls-2" d="M657.01,458.75c-9.39,0-17.01-7.61-17.01-17.01s7.61-17.01,17.01-17.01"/>
  </g>
  <g id="LINE-24" data-name="LINE">
    <line class="cls-2" x1="657.01" y1="424.74" x2="691.02" y2="424.74"/>
  </g>
  <g id="LINE-25" data-name="LINE">
    <line class="cls-2" x1="691.02" y1="424.74" x2="744.88" y2="424.74"/>
  </g>
  <g id="LINE-26" data-name="LINE">
    <line class="cls-2" x1="744.88" y1="424.74" x2="744.88" y2="356.71"/>
  </g>
  <g id="LINE-27" data-name="LINE">
    <line class="cls-2" x1="872.44" y1="342.53" x2="872.44" y2="328.64"/>
  </g>
  <g id="LINE-28" data-name="LINE">
    <line class="cls-2" x1="872.44" y1="328.64" x2="858.27" y2="328.64"/>
  </g>
  <g id="LINE-29" data-name="LINE">
    <line class="cls-2" x1="858.27" y1="328.64" x2="858.27" y2="322.69"/>
  </g>
  <g id="LINE-30" data-name="LINE">
    <line class="cls-2" x1="858.27" y1="322.69" x2="872.44" y2="322.69"/>
  </g>
  <g id="LINE-31" data-name="LINE">
    <line class="cls-2" x1="872.44" y1="322.69" x2="872.44" y2="314.19"/>
  </g>
  <g id="LINE-32" data-name="LINE">
    <line class="cls-2" x1="872.44" y1="314.19" x2="546.46" y2="314.19"/>
  </g>
  <g id="ARC-11" data-name="ARC">
    <path class="cls-2" d="M1580.61,814.18c7.83,0,14.17-6.35,14.17-14.17"/>
  </g>
  <g id="LINE-33" data-name="LINE">
    <line class="cls-2" x1="1580.61" y1="814.18" x2="758.56" y2="814.18"/>
  </g>
  <g id="ARC-12" data-name="ARC">
    <path class="cls-2" d="M1594.78,629.93c0-7.83-6.35-14.17-14.17-14.17"/>
  </g>
  <g id="LINE-34" data-name="LINE">
    <line class="cls-2" x1="1594.78" y1="629.93" x2="1594.78" y2="646.93"/>
  </g>
  <g id="ARC-13" data-name="ARC">
    <path class="cls-2" d="M758.56,615.75c-7.83,0-14.17,6.35-14.17,14.17"/>
  </g>
  <g id="LINE-35" data-name="LINE">
    <line class="cls-2" x1="758.56" y1="615.75" x2="871.94" y2="615.75"/>
  </g>
  <g id="ARC-14" data-name="ARC">
    <path class="cls-2" d="M744.39,800.01c0,7.83,6.35,14.17,14.17,14.17"/>
  </g>
  <g id="LINE-36" data-name="LINE">
    <line class="cls-2" x1="744.39" y1="800.01" x2="744.39" y2="629.93"/>
  </g>
  <g id="LINE-37" data-name="LINE">
    <line class="cls-2" x1="1814.48" y1="644.1" x2="1803.84" y2="662.53"/>
  </g>
  <g id="LINE-38" data-name="LINE">
    <line class="cls-2" x1="1803.84" y1="662.53" x2="1782.57" y2="662.53"/>
  </g>
  <g id="LINE-39" data-name="LINE">
    <line class="cls-2" x1="1782.57" y1="662.53" x2="1771.93" y2="644.1"/>
  </g>
  <g id="LINE-40" data-name="LINE">
    <line class="cls-2" x1="1771.93" y1="644.1" x2="1782.57" y2="625.67"/>
  </g>
  <g id="LINE-41" data-name="LINE">
    <line class="cls-2" x1="1782.57" y1="625.67" x2="1803.84" y2="625.67"/>
  </g>
  <g id="LINE-42" data-name="LINE">
    <line class="cls-2" x1="1803.84" y1="625.67" x2="1814.48" y2="644.1"/>
  </g>
  <g id="LINE-43" data-name="LINE">
    <line class="cls-2" x1="1759.9" y1="788.67" x2="1680.53" y2="788.67"/>
  </g>
  <g id="LINE-44" data-name="LINE">
    <line class="cls-2" x1="1680.53" y1="788.67" x2="1680.53" y2="754.65"/>
  </g>
  <g id="LINE-45" data-name="LINE">
    <line class="cls-2" x1="1680.53" y1="754.65" x2="1759.9" y2="754.65"/>
  </g>
  <g id="LINE-46" data-name="LINE">
    <line class="cls-2" x1="1759.9" y1="754.65" x2="1759.9" y2="788.67"/>
  </g>
  <g id="ARC-15" data-name="ARC">
    <path class="cls-2" d="M690.53,697.96h0c9.39,0,17.01,7.61,17.01,17.01s-7.61,17.01-17.01,17.01"/>
  </g>
  <g id="LINE-47" data-name="LINE">
    <line class="cls-2" x1="690.53" y1="731.97" x2="656.51" y2="731.97"/>
  </g>
  <g id="ARC-16" data-name="ARC">
    <path class="cls-2" d="M656.51,731.97c-9.39,0-17.01-7.61-17.01-17.01s7.61-17.01,17.01-17.01"/>
  </g>
  <g id="LINE-48" data-name="LINE">
    <line class="cls-2" x1="656.51" y1="697.96" x2="690.53" y2="697.96"/>
  </g>
  <g id="CIRCLE-13" data-name="CIRCLE">
    <circle class="cls-2" cx="1892.42" cy="714.97" r="8.65"/>
  </g>
  <g id="LINE-49" data-name="LINE">
    <line class="cls-2" x1="1771.93" y1="785.83" x2="1782.57" y2="767.41"/>
  </g>
  <g id="LINE-50" data-name="LINE">
    <line class="cls-2" x1="1782.57" y1="767.41" x2="1803.84" y2="767.41"/>
  </g>
  <g id="LINE-51" data-name="LINE">
    <line class="cls-2" x1="1803.84" y1="767.41" x2="1814.48" y2="785.83"/>
  </g>
  <g id="LINE-52" data-name="LINE">
    <line class="cls-2" x1="1814.48" y1="785.83" x2="1803.84" y2="804.26"/>
  </g>
  <g id="LINE-53" data-name="LINE">
    <line class="cls-2" x1="1803.84" y1="804.26" x2="1782.57" y2="804.26"/>
  </g>
  <g id="LINE-54" data-name="LINE">
    <line class="cls-2" x1="1782.57" y1="804.26" x2="1771.93" y2="785.83"/>
  </g>
  <g id="LINE-55" data-name="LINE">
    <line class="cls-2" x1="535.32" y1="625.67" x2="556.6" y2="625.67"/>
  </g>
  <g id="LINE-56" data-name="LINE">
    <line class="cls-2" x1="556.6" y1="625.67" x2="567.24" y2="644.1"/>
  </g>
  <g id="LINE-57" data-name="LINE">
    <line class="cls-2" x1="567.24" y1="644.1" x2="556.6" y2="662.53"/>
  </g>
  <g id="LINE-58" data-name="LINE">
    <line class="cls-2" x1="556.6" y1="662.53" x2="535.32" y2="662.53"/>
  </g>
  <g id="LINE-59" data-name="LINE">
    <line class="cls-2" x1="535.32" y1="662.53" x2="524.68" y2="644.1"/>
  </g>
  <g id="LINE-60" data-name="LINE">
    <line class="cls-2" x1="524.68" y1="644.1" x2="535.32" y2="625.67"/>
  </g>
  <g id="CIRCLE-14" data-name="CIRCLE">
    <circle class="cls-2" cx="446.75" cy="714.97" r="8.65"/>
  </g>
  <g id="LINE-61" data-name="LINE">
    <line class="cls-2" x1="567.24" y1="785.83" x2="556.6" y2="804.26"/>
  </g>
  <g id="LINE-62" data-name="LINE">
    <line class="cls-2" x1="556.6" y1="804.26" x2="535.32" y2="804.26"/>
  </g>
  <g id="LINE-63" data-name="LINE">
    <line class="cls-2" x1="535.32" y1="804.26" x2="524.68" y2="785.83"/>
  </g>
  <g id="LINE-64" data-name="LINE">
    <line class="cls-2" x1="524.68" y1="785.83" x2="535.32" y2="767.41"/>
  </g>
  <g id="LINE-65" data-name="LINE">
    <line class="cls-2" x1="535.32" y1="767.41" x2="556.6" y2="767.41"/>
  </g>
  <g id="LINE-66" data-name="LINE">
    <line class="cls-2" x1="556.6" y1="767.41" x2="567.24" y2="785.83"/>
  </g>
  <g id="ARC-17" data-name="ARC">
    <path class="cls-2" d="M1793.2,842.53c70.45,0,127.56-57.11,127.56-127.56s-57.11-127.56-127.56-127.56"/>
  </g>
  <g id="LINE-67" data-name="LINE">
    <line class="cls-2" x1="1793.2" y1="587.41" x2="999.5" y2="587.41"/>
  </g>
  <g id="LINE-68" data-name="LINE">
    <line class="cls-2" x1="999.5" y1="587.41" x2="999.5" y2="595.91"/>
  </g>
  <g id="LINE-69" data-name="LINE">
    <line class="cls-2" x1="999.5" y1="595.91" x2="1013.68" y2="595.91"/>
  </g>
  <g id="LINE-70" data-name="LINE">
    <line class="cls-2" x1="1013.68" y1="595.91" x2="1013.68" y2="601.86"/>
  </g>
  <g id="LINE-71" data-name="LINE">
    <line class="cls-2" x1="1013.68" y1="601.86" x2="999.5" y2="601.86"/>
  </g>
  <g id="LINE-72" data-name="LINE">
    <line class="cls-2" x1="999.5" y1="601.86" x2="999.5" y2="615.75"/>
  </g>
  <g id="LINE-73" data-name="LINE">
    <line class="cls-2" x1="999.5" y1="615.75" x2="1580.61" y2="615.75"/>
  </g>
  <g id="LINE-74" data-name="LINE">
    <line class="cls-2" x1="1594.78" y1="646.93" x2="1720.21" y2="646.93"/>
  </g>
  <g id="ARC-18" data-name="ARC">
    <path class="cls-2" d="M1720.21,646.93c6.26,0,11.34,5.08,11.34,11.34s-5.08,11.34-11.34,11.34"/>
  </g>
  <g id="LINE-75" data-name="LINE">
    <line class="cls-2" x1="1720.21" y1="669.61" x2="1594.78" y2="669.61"/>
  </g>
  <g id="LINE-76" data-name="LINE">
    <line class="cls-2" x1="1594.78" y1="669.61" x2="1594.78" y2="800.01"/>
  </g>
  <g id="LINE-77" data-name="LINE">
    <line class="cls-2" x1="871.94" y1="615.75" x2="871.94" y2="601.86"/>
  </g>
  <g id="LINE-78" data-name="LINE">
    <line class="cls-2" x1="871.94" y1="601.86" x2="857.77" y2="601.86"/>
  </g>
  <g id="LINE-79" data-name="LINE">
    <line class="cls-2" x1="857.77" y1="601.86" x2="857.77" y2="595.91"/>
  </g>
  <g id="LINE-80" data-name="LINE">
    <line class="cls-2" x1="857.77" y1="595.91" x2="871.94" y2="595.91"/>
  </g>
  <g id="LINE-81" data-name="LINE">
    <line class="cls-2" x1="871.94" y1="595.91" x2="871.94" y2="587.41"/>
  </g>
  <g id="LINE-82" data-name="LINE">
    <line class="cls-2" x1="871.94" y1="587.41" x2="545.96" y2="587.41"/>
  </g>
  <g id="ARC-19" data-name="ARC">
    <path class="cls-2" d="M545.96,587.41c-70.45,0-127.56,57.11-127.56,127.56s57.11,127.56,127.56,127.56"/>
  </g>
  <g id="LINE-83" data-name="LINE">
    <line class="cls-2" x1="545.96" y1="842.53" x2="1793.2" y2="842.53"/>
  </g>
  <g id="ARC-20" data-name="ARC">
    <path class="cls-2" d="M556.66,1042.04c-24.29,0-45.57-16.25-51.96-39.69"/>
  </g>
  <g id="LINE-84" data-name="LINE">
    <line class="cls-2" x1="610.52" y1="1042.04" x2="556.66" y2="1042.04"/>
  </g>
  <g id="ARC-21" data-name="ARC">
    <path class="cls-2" d="M657.16,1015.11c-9.62,16.66-27.4,26.93-46.64,26.93"/>
  </g>
  <g id="LINE-85" data-name="LINE">
    <line class="cls-2" x1="691.31" y1="1015.11" x2="657.16" y2="1015.11"/>
  </g>
  <g id="ARC-22" data-name="ARC">
    <path class="cls-2" d="M691.31,961.26c14.87,0,26.93,12.06,26.93,26.93s-12.06,26.93-26.93,26.93"/>
  </g>
  <g id="LINE-86" data-name="LINE">
    <line class="cls-2" x1="657.16" y1="961.26" x2="691.31" y2="961.26"/>
  </g>
  <g id="ARC-23" data-name="ARC">
    <path class="cls-2" d="M610.52,934.33c19.24,0,37.02,10.27,46.64,26.93"/>
  </g>
  <g id="LINE-87" data-name="LINE">
    <line class="cls-2" x1="556.66" y1="934.33" x2="610.52" y2="934.33"/>
  </g>
  <g id="ARC-24" data-name="ARC">
    <path class="cls-2" d="M504.7,974.01c6.39-23.43,27.67-39.69,51.96-39.69"/>
  </g>
  <g id="LINE-88" data-name="LINE">
    <line class="cls-2" x1="489.34" y1="974.01" x2="504.7" y2="974.01"/>
  </g>
  <g id="LINE-89" data-name="LINE">
    <line class="cls-2" x1="489.34" y1="931.49" x2="489.34" y2="974.01"/>
  </g>
  <g id="LINE-90" data-name="LINE">
    <line class="cls-2" x1="475.17" y1="931.49" x2="489.34" y2="931.49"/>
  </g>
  <g id="LINE-91" data-name="LINE">
    <line class="cls-2" x1="475.17" y1="1044.88" x2="475.17" y2="931.49"/>
  </g>
  <g id="LINE-92" data-name="LINE">
    <line class="cls-2" x1="489.34" y1="1044.88" x2="475.17" y2="1044.88"/>
  </g>
  <g id="LINE-93" data-name="LINE">
    <line class="cls-2" x1="489.34" y1="1002.36" x2="489.34" y2="1044.88"/>
  </g>
  <g id="LINE-94" data-name="LINE">
    <line class="cls-2" x1="504.7" y1="1002.36" x2="489.34" y2="1002.36"/>
  </g>
  <g id="ARC-25" data-name="ARC">
    <path class="cls-2" d="M1176.03,888.97c-7.83,0-14.17,6.35-14.17,14.17"/>
  </g>
  <g id="LINE-95" data-name="LINE">
    <line class="cls-2" x1="1176.03" y1="888.97" x2="1581.39" y2="888.97"/>
  </g>
  <g id="ARC-26" data-name="ARC">
    <path class="cls-2" d="M1161.86,1073.23c0,7.83,6.35,14.17,14.17,14.17"/>
  </g>
  <g id="LINE-96" data-name="LINE">
    <line class="cls-2" x1="1161.86" y1="1073.23" x2="1161.86" y2="903.15"/>
  </g>
  <g id="ARC-27" data-name="ARC">
    <path class="cls-2" d="M1065.48,903.15c0-7.83-6.35-14.17-14.17-14.17"/>
  </g>
  <g id="LINE-97" data-name="LINE">
    <line class="cls-2" x1="1065.48" y1="903.15" x2="1065.48" y2="988.19"/>
  </g>
  <g id="ARC-28" data-name="ARC">
    <path class="cls-2" d="M1051.31,1087.4c7.83,0,14.17-6.35,14.17-14.17"/>
  </g>
  <g id="LINE-98" data-name="LINE">
    <line class="cls-2" x1="1051.31" y1="1087.4" x2="759.34" y2="1087.4"/>
  </g>
  <g id="ARC-29" data-name="ARC">
    <path class="cls-2" d="M1581.39,1087.4c7.83,0,14.17-6.35,14.17-14.17"/>
  </g>
  <g id="LINE-99" data-name="LINE">
    <line class="cls-2" x1="1581.39" y1="1087.4" x2="1176.03" y2="1087.4"/>
  </g>
  <g id="ARC-30" data-name="ARC">
    <path class="cls-2" d="M1595.56,903.15c0-7.83-6.35-14.17-14.17-14.17"/>
  </g>
  <g id="LINE-100" data-name="LINE">
    <line class="cls-2" x1="1595.56" y1="903.15" x2="1595.56" y2="1073.23"/>
  </g>
  <g id="ARC-31" data-name="ARC">
    <path class="cls-2" d="M759.34,888.97c-7.83,0-14.17,6.35-14.17,14.17"/>
  </g>
  <g id="LINE-101" data-name="LINE">
    <line class="cls-2" x1="759.34" y1="888.97" x2="1051.31" y2="888.97"/>
  </g>
  <g id="ARC-32" data-name="ARC">
    <path class="cls-2" d="M745.17,1073.23c0,7.83,6.35,14.17,14.17,14.17"/>
  </g>
  <g id="LINE-102" data-name="LINE">
    <line class="cls-2" x1="745.17" y1="1073.23" x2="745.17" y2="903.15"/>
  </g>
  <g id="LINE-103" data-name="LINE">
    <line class="cls-2" x1="1065.48" y1="988.19" x2="1065.48" y2="1073.23"/>
  </g>
  <g id="CIRCLE-15" data-name="CIRCLE">
    <circle class="cls-2" cx="1793.99" cy="1059.05" r="12.05"/>
  </g>
  <g id="CIRCLE-16" data-name="CIRCLE">
    <circle class="cls-2" cx="1720.99" cy="931.49" r="11.34"/>
  </g>
  <g id="LINE-104" data-name="LINE">
    <line class="cls-2" x1="1681.31" y1="1061.89" x2="1681.31" y2="1027.87"/>
  </g>
  <g id="LINE-105" data-name="LINE">
    <line class="cls-2" x1="1681.31" y1="1027.87" x2="1760.68" y2="1027.87"/>
  </g>
  <g id="LINE-106" data-name="LINE">
    <line class="cls-2" x1="1760.68" y1="1027.87" x2="1760.68" y2="1061.89"/>
  </g>
  <g id="LINE-107" data-name="LINE">
    <line class="cls-2" x1="1760.68" y1="1061.89" x2="1681.31" y2="1061.89"/>
  </g>
  <g id="CIRCLE-17" data-name="CIRCLE">
    <circle class="cls-2" cx="546.74" cy="1059.05" r="12.05"/>
  </g>
  <g id="CIRCLE-18" data-name="CIRCLE">
    <circle class="cls-2" cx="546.74" cy="917.32" r="12.05"/>
  </g>
  <g id="CIRCLE-19" data-name="CIRCLE">
    <circle class="cls-2" cx="447.53" cy="988.19" r="8.65"/>
  </g>
  <g id="CIRCLE-20" data-name="CIRCLE">
    <circle class="cls-2" cx="1793.99" cy="917.32" r="12.05"/>
  </g>
  <g id="CIRCLE-21" data-name="CIRCLE">
    <circle class="cls-2" cx="1893.2" cy="988.19" r="8.65"/>
  </g>
  <g id="LINE-108" data-name="LINE">
    <line class="cls-2" x1="546.74" y1="1115.74" x2="1793.99" y2="1115.74"/>
  </g>
  <g id="ARC-33" data-name="ARC">
    <path class="cls-2" d="M1793.99,1115.74c70.45,0,127.56-57.11,127.56-127.56s-57.11-127.56-127.56-127.56"/>
  </g>
  <g id="LINE-109" data-name="LINE">
    <line class="cls-2" x1="1793.99" y1="860.63" x2="546.74" y2="860.63"/>
  </g>
  <g id="ARC-34" data-name="ARC">
    <path class="cls-2" d="M546.74,860.63c-70.45,0-127.56,57.11-127.56,127.56s57.11,127.56,127.56,127.56"/>
  </g>
  <g id="ARC-35" data-name="ARC">
    <path class="cls-2" d="M1176.31,1160.44c-7.83,0-14.17,6.35-14.17,14.17"/>
  </g>
  <g id="LINE-110" data-name="LINE">
    <line class="cls-2" x1="1176.31" y1="1160.44" x2="1581.66" y2="1160.44"/>
  </g>
  <g id="ARC-36" data-name="ARC">
    <path class="cls-2" d="M1162.14,1344.69c0,7.83,6.35,14.17,14.17,14.17"/>
  </g>
  <g id="LINE-111" data-name="LINE">
    <line class="cls-2" x1="1162.14" y1="1344.69" x2="1162.14" y2="1174.61"/>
  </g>
  <g id="ARC-37" data-name="ARC">
    <path class="cls-2" d="M1065.76,1174.61c0-7.83-6.35-14.17-14.17-14.17"/>
  </g>
  <g id="LINE-112" data-name="LINE">
    <line class="cls-2" x1="1065.76" y1="1174.61" x2="1065.76" y2="1259.65"/>
  </g>
  <g id="ARC-38" data-name="ARC">
    <path class="cls-2" d="M1051.58,1358.87c7.83,0,14.17-6.35,14.17-14.17"/>
  </g>
  <g id="LINE-113" data-name="LINE">
    <line class="cls-2" x1="1051.58" y1="1358.87" x2="759.62" y2="1358.87"/>
  </g>
  <g id="ARC-39" data-name="ARC">
    <path class="cls-2" d="M1581.66,1358.87c7.83,0,14.17-6.35,14.17-14.17"/>
  </g>
  <g id="LINE-114" data-name="LINE">
    <line class="cls-2" x1="1581.66" y1="1358.87" x2="1176.31" y2="1358.87"/>
  </g>
  <g id="ARC-40" data-name="ARC">
    <path class="cls-2" d="M1595.84,1174.61c0-7.83-6.35-14.17-14.17-14.17"/>
  </g>
  <g id="LINE-115" data-name="LINE">
    <line class="cls-2" x1="1595.84" y1="1174.61" x2="1595.84" y2="1344.69"/>
  </g>
  <g id="ARC-41" data-name="ARC">
    <path class="cls-2" d="M759.62,1160.44c-7.83,0-14.17,6.35-14.17,14.17"/>
  </g>
  <g id="LINE-116" data-name="LINE">
    <line class="cls-2" x1="759.62" y1="1160.44" x2="1051.58" y2="1160.44"/>
  </g>
  <g id="ARC-42" data-name="ARC">
    <path class="cls-2" d="M745.44,1344.69c0,7.83,6.35,14.17,14.17,14.17"/>
  </g>
  <g id="LINE-117" data-name="LINE">
    <line class="cls-2" x1="745.44" y1="1344.69" x2="745.44" y2="1174.61"/>
  </g>
  <g id="LINE-118" data-name="LINE">
    <line class="cls-2" x1="1681.58" y1="1299.34" x2="1760.95" y2="1299.34"/>
  </g>
  <g id="LINE-119" data-name="LINE">
    <line class="cls-2" x1="1681.58" y1="1333.35" x2="1681.58" y2="1299.34"/>
  </g>
  <g id="LINE-120" data-name="LINE">
    <line class="cls-2" x1="1760.95" y1="1333.35" x2="1681.58" y2="1333.35"/>
  </g>
  <g id="LINE-121" data-name="LINE">
    <line class="cls-2" x1="1760.95" y1="1299.34" x2="1760.95" y2="1333.35"/>
  </g>
  <g id="CIRCLE-22" data-name="CIRCLE">
    <circle class="cls-2" cx="1721.27" cy="1202.96" r="31.18"/>
  </g>
  <g id="CIRCLE-23" data-name="CIRCLE">
    <circle class="cls-2" cx="1113.95" cy="1259.65" r="31.18"/>
  </g>
  <g id="LINE-122" data-name="LINE">
    <line class="cls-2" x1="1065.76" y1="1259.65" x2="1065.76" y2="1344.69"/>
  </g>
  <g id="ARC-43" data-name="ARC">
    <path class="cls-2" d="M556.94,1313.51c-24.29,0-45.57-16.25-51.96-39.69"/>
  </g>
  <g id="LINE-123" data-name="LINE">
    <line class="cls-2" x1="610.8" y1="1313.51" x2="556.94" y2="1313.51"/>
  </g>
  <g id="ARC-44" data-name="ARC">
    <path class="cls-2" d="M657.44,1286.58c-9.62,16.66-27.4,26.93-46.64,26.93"/>
  </g>
  <g id="LINE-124" data-name="LINE">
    <line class="cls-2" x1="691.58" y1="1286.58" x2="657.44" y2="1286.58"/>
  </g>
  <g id="ARC-45" data-name="ARC">
    <path class="cls-2" d="M691.58,1232.72c14.87,0,26.93,12.06,26.93,26.93s-12.06,26.93-26.93,26.93"/>
  </g>
  <g id="LINE-125" data-name="LINE">
    <line class="cls-2" x1="657.44" y1="1232.72" x2="691.58" y2="1232.72"/>
  </g>
  <g id="ARC-46" data-name="ARC">
    <path class="cls-2" d="M610.8,1205.8c19.24,0,37.02,10.27,46.64,26.93"/>
  </g>
  <g id="LINE-126" data-name="LINE">
    <line class="cls-2" x1="556.94" y1="1205.8" x2="610.8" y2="1205.8"/>
  </g>
  <g id="ARC-47" data-name="ARC">
    <path class="cls-2" d="M504.98,1245.48c6.39-23.43,27.67-39.69,51.96-39.69"/>
  </g>
  <g id="LINE-127" data-name="LINE">
    <line class="cls-2" x1="489.62" y1="1245.48" x2="504.98" y2="1245.48"/>
  </g>
  <g id="LINE-128" data-name="LINE">
    <line class="cls-2" x1="489.62" y1="1202.96" x2="489.62" y2="1245.48"/>
  </g>
  <g id="LINE-129" data-name="LINE">
    <line class="cls-2" x1="475.44" y1="1202.96" x2="489.62" y2="1202.96"/>
  </g>
  <g id="LINE-130" data-name="LINE">
    <line class="cls-2" x1="475.44" y1="1316.35" x2="475.44" y2="1202.96"/>
  </g>
  <g id="LINE-131" data-name="LINE">
    <line class="cls-2" x1="489.62" y1="1316.35" x2="475.44" y2="1316.35"/>
  </g>
  <g id="LINE-132" data-name="LINE">
    <line class="cls-2" x1="489.62" y1="1273.83" x2="489.62" y2="1316.35"/>
  </g>
  <g id="LINE-133" data-name="LINE">
    <line class="cls-2" x1="504.98" y1="1273.83" x2="489.62" y2="1273.83"/>
  </g>
  <g id="CIRCLE-24" data-name="CIRCLE">
    <circle class="cls-2" cx="447.8" cy="1259.65" r="8.65"/>
  </g>
  <g id="CIRCLE-25" data-name="CIRCLE">
    <circle class="cls-2" cx="1893.47" cy="1259.65" r="8.65"/>
  </g>
  <g id="ARC-48" data-name="ARC">
    <path class="cls-2" d="M547.02,1132.09c-70.45,0-127.56,57.11-127.56,127.56s57.11,127.56,127.56,127.56"/>
  </g>
  <g id="LINE-134" data-name="LINE">
    <line class="cls-2" x1="1794.26" y1="1132.09" x2="547.02" y2="1132.09"/>
  </g>
  <g id="ARC-49" data-name="ARC">
    <path class="cls-2" d="M1794.26,1387.21c70.45,0,127.56-57.11,127.56-127.56s-57.11-127.56-127.56-127.56"/>
  </g>
  <g id="LINE-135" data-name="LINE">
    <line class="cls-2" x1="547.02" y1="1387.21" x2="1794.26" y2="1387.21"/>
  </g>
  <g id="ARC-50" data-name="ARC">
    <path class="cls-2" d="M1176.19,1435.85c-7.83,0-14.17,6.35-14.17,14.17"/>
  </g>
  <g id="LINE-136" data-name="LINE">
    <line class="cls-2" x1="1176.19" y1="1435.85" x2="1581.54" y2="1435.85"/>
  </g>
  <g id="ARC-51" data-name="ARC">
    <path class="cls-2" d="M1162.01,1620.1c0,7.83,6.35,14.17,14.17,14.17"/>
  </g>
  <g id="LINE-137" data-name="LINE">
    <line class="cls-2" x1="1162.01" y1="1620.1" x2="1162.01" y2="1450.02"/>
  </g>
  <g id="ARC-52" data-name="ARC">
    <path class="cls-2" d="M1065.63,1450.02c0-7.83-6.35-14.17-14.17-14.17"/>
  </g>
  <g id="LINE-138" data-name="LINE">
    <line class="cls-2" x1="1065.63" y1="1450.02" x2="1065.63" y2="1535.06"/>
  </g>
  <g id="ARC-53" data-name="ARC">
    <path class="cls-2" d="M1051.46,1634.27c7.83,0,14.17-6.35,14.17-14.17"/>
  </g>
  <g id="LINE-139" data-name="LINE">
    <line class="cls-2" x1="1051.46" y1="1634.27" x2="759.49" y2="1634.27"/>
  </g>
  <g id="ARC-54" data-name="ARC">
    <path class="cls-2" d="M1581.54,1634.27c7.83,0,14.17-6.35,14.17-14.17"/>
  </g>
  <g id="LINE-140" data-name="LINE">
    <line class="cls-2" x1="1581.54" y1="1634.27" x2="1176.19" y2="1634.27"/>
  </g>
  <g id="ARC-55" data-name="ARC">
    <path class="cls-2" d="M1595.71,1450.02c0-7.83-6.35-14.17-14.17-14.17"/>
  </g>
  <g id="LINE-141" data-name="LINE">
    <line class="cls-2" x1="1595.71" y1="1450.02" x2="1595.71" y2="1620.1"/>
  </g>
  <g id="ARC-56" data-name="ARC">
    <path class="cls-2" d="M759.49,1435.85c-7.83,0-14.17,6.35-14.17,14.17"/>
  </g>
  <g id="LINE-142" data-name="LINE">
    <line class="cls-2" x1="759.49" y1="1435.85" x2="1051.46" y2="1435.85"/>
  </g>
  <g id="ARC-57" data-name="ARC">
    <path class="cls-2" d="M745.32,1620.1c0,7.83,6.35,14.17,14.17,14.17"/>
  </g>
  <g id="LINE-143" data-name="LINE">
    <line class="cls-2" x1="745.32" y1="1620.1" x2="745.32" y2="1450.02"/>
  </g>
  <g id="LINE-144" data-name="LINE">
    <line class="cls-2" x1="1681.46" y1="1574.74" x2="1760.83" y2="1574.74"/>
  </g>
  <g id="LINE-145" data-name="LINE">
    <line class="cls-2" x1="1681.46" y1="1608.76" x2="1681.46" y2="1574.74"/>
  </g>
  <g id="LINE-146" data-name="LINE">
    <line class="cls-2" x1="1760.83" y1="1608.76" x2="1681.46" y2="1608.76"/>
  </g>
  <g id="LINE-147" data-name="LINE">
    <line class="cls-2" x1="1760.83" y1="1574.74" x2="1760.83" y2="1608.76"/>
  </g>
  <g id="ARC-58" data-name="ARC">
    <path class="cls-2" d="M556.81,1588.92c-24.29,0-45.57-16.25-51.96-39.69"/>
  </g>
  <g id="LINE-148" data-name="LINE">
    <line class="cls-2" x1="610.67" y1="1588.92" x2="556.81" y2="1588.92"/>
  </g>
  <g id="ARC-59" data-name="ARC">
    <path class="cls-2" d="M657.32,1561.99c-9.62,16.66-27.4,26.93-46.64,26.93"/>
  </g>
  <g id="LINE-149" data-name="LINE">
    <line class="cls-2" x1="691.46" y1="1561.99" x2="657.32" y2="1561.99"/>
  </g>
  <g id="ARC-60" data-name="ARC">
    <path class="cls-2" d="M691.46,1508.13c14.87,0,26.93,12.06,26.93,26.93s-12.06,26.93-26.93,26.93"/>
  </g>
  <g id="LINE-150" data-name="LINE">
    <line class="cls-2" x1="657.32" y1="1508.13" x2="691.46" y2="1508.13"/>
  </g>
  <g id="ARC-61" data-name="ARC">
    <path class="cls-2" d="M610.67,1481.2c19.24,0,37.02,10.27,46.64,26.93"/>
  </g>
  <g id="LINE-151" data-name="LINE">
    <line class="cls-2" x1="556.81" y1="1481.2" x2="610.67" y2="1481.2"/>
  </g>
  <g id="ARC-62" data-name="ARC">
    <path class="cls-2" d="M504.86,1520.89c6.39-23.43,27.67-39.69,51.96-39.69"/>
  </g>
  <g id="LINE-152" data-name="LINE">
    <line class="cls-2" x1="489.49" y1="1520.89" x2="504.86" y2="1520.89"/>
  </g>
  <g id="LINE-153" data-name="LINE">
    <line class="cls-2" x1="489.49" y1="1478.37" x2="489.49" y2="1520.89"/>
  </g>
  <g id="LINE-154" data-name="LINE">
    <line class="cls-2" x1="475.32" y1="1478.37" x2="489.49" y2="1478.37"/>
  </g>
  <g id="LINE-155" data-name="LINE">
    <line class="cls-2" x1="475.32" y1="1591.75" x2="475.32" y2="1478.37"/>
  </g>
  <g id="LINE-156" data-name="LINE">
    <line class="cls-2" x1="489.49" y1="1591.75" x2="475.32" y2="1591.75"/>
  </g>
  <g id="LINE-157" data-name="LINE">
    <line class="cls-2" x1="489.49" y1="1549.23" x2="489.49" y2="1591.75"/>
  </g>
  <g id="LINE-158" data-name="LINE">
    <line class="cls-2" x1="504.86" y1="1549.23" x2="489.49" y2="1549.23"/>
  </g>
  <g id="CIRCLE-26" data-name="CIRCLE">
    <circle class="cls-2" cx="1893.35" cy="1535.06" r="8.65"/>
  </g>
  <g id="CIRCLE-27" data-name="CIRCLE">
    <circle class="cls-2" cx="447.68" cy="1535.06" r="8.65"/>
  </g>
  <g id="CIRCLE-28" data-name="CIRCLE">
    <circle class="cls-2" cx="1721.15" cy="1478.37" r="14.46"/>
  </g>
  <g id="CIRCLE-29" data-name="CIRCLE">
    <circle class="cls-2" cx="1113.82" cy="1535.06" r="14.46"/>
  </g>
  <g id="LINE-159" data-name="LINE">
    <line class="cls-2" x1="1065.63" y1="1535.06" x2="1065.63" y2="1620.1"/>
  </g>
  <g id="ARC-63" data-name="ARC">
    <path class="cls-2" d="M546.89,1407.5c-70.45,0-127.56,57.11-127.56,127.56,0,70.45,57.11,127.56,127.56,127.56"/>
  </g>
  <g id="LINE-160" data-name="LINE">
    <line class="cls-2" x1="1794.14" y1="1407.5" x2="546.89" y2="1407.5"/>
  </g>
  <g id="ARC-64" data-name="ARC">
    <path class="cls-2" d="M1794.14,1662.62c70.45,0,127.56-57.11,127.56-127.56s-57.11-127.56-127.56-127.56"/>
  </g>
  <g id="LINE-161" data-name="LINE">
    <line class="cls-2" x1="546.89" y1="1662.62" x2="1794.14" y2="1662.62"/>
  </g>
  <g id="ARC-65" data-name="ARC">
    <path class="cls-2" d="M1175.87,1712.13c-7.83,0-14.17,6.35-14.17,14.17"/>
  </g>
  <g id="LINE-162" data-name="LINE">
    <line class="cls-2" x1="1175.87" y1="1712.13" x2="1581.23" y2="1712.13"/>
  </g>
  <g id="ARC-66" data-name="ARC">
    <path class="cls-2" d="M1161.7,1896.39c0,7.83,6.35,14.17,14.17,14.17"/>
  </g>
  <g id="LINE-163" data-name="LINE">
    <line class="cls-2" x1="1161.7" y1="1896.39" x2="1161.7" y2="1726.31"/>
  </g>
  <g id="ARC-67" data-name="ARC">
    <path class="cls-2" d="M1065.32,1726.31c0-7.83-6.35-14.17-14.17-14.17"/>
  </g>
  <g id="LINE-164" data-name="LINE">
    <line class="cls-2" x1="1065.32" y1="1726.31" x2="1065.32" y2="1811.35"/>
  </g>
  <g id="ARC-68" data-name="ARC">
    <path class="cls-2" d="M1051.15,1910.56c7.83,0,14.17-6.35,14.17-14.17"/>
  </g>
  <g id="LINE-165" data-name="LINE">
    <line class="cls-2" x1="1051.15" y1="1910.56" x2="759.18" y2="1910.56"/>
  </g>
  <g id="ARC-69" data-name="ARC">
    <path class="cls-2" d="M1581.23,1910.56c7.83,0,14.17-6.35,14.17-14.17"/>
  </g>
  <g id="LINE-166" data-name="LINE">
    <line class="cls-2" x1="1581.23" y1="1910.56" x2="1175.87" y2="1910.56"/>
  </g>
  <g id="ARC-70" data-name="ARC">
    <path class="cls-2" d="M1595.4,1726.31c0-7.83-6.35-14.17-14.17-14.17"/>
  </g>
  <g id="LINE-167" data-name="LINE">
    <line class="cls-2" x1="1595.4" y1="1726.31" x2="1595.4" y2="1896.39"/>
  </g>
  <g id="ARC-71" data-name="ARC">
    <path class="cls-2" d="M759.18,1712.13c-7.83,0-14.17,6.35-14.17,14.17"/>
  </g>
  <g id="LINE-168" data-name="LINE">
    <line class="cls-2" x1="759.18" y1="1712.13" x2="1051.15" y2="1712.13"/>
  </g>
  <g id="ARC-72" data-name="ARC">
    <path class="cls-2" d="M745.01,1896.39c0,7.83,6.35,14.17,14.17,14.17"/>
  </g>
  <g id="LINE-169" data-name="LINE">
    <line class="cls-2" x1="745.01" y1="1896.39" x2="745.01" y2="1726.31"/>
  </g>
  <g id="CIRCLE-30" data-name="CIRCLE">
    <circle class="cls-2" cx="1893.04" cy="1811.35" r="8.65"/>
  </g>
  <g id="CIRCLE-31" data-name="CIRCLE">
    <circle class="cls-2" cx="1113.51" cy="1811.35" r="31.18"/>
  </g>
  <g id="CIRCLE-32" data-name="CIRCLE">
    <circle class="cls-2" cx="447.37" cy="1811.35" r="8.65"/>
  </g>
  <g id="LINE-170" data-name="LINE">
    <line class="cls-2" x1="1681.15" y1="1851.03" x2="1760.52" y2="1851.03"/>
  </g>
  <g id="LINE-171" data-name="LINE">
    <line class="cls-2" x1="1681.15" y1="1885.05" x2="1681.15" y2="1851.03"/>
  </g>
  <g id="LINE-172" data-name="LINE">
    <line class="cls-2" x1="1760.52" y1="1885.05" x2="1681.15" y2="1885.05"/>
  </g>
  <g id="LINE-173" data-name="LINE">
    <line class="cls-2" x1="1760.52" y1="1851.03" x2="1760.52" y2="1885.05"/>
  </g>
  <g id="ARC-73" data-name="ARC">
    <path class="cls-2" d="M556.5,1865.21c-24.29,0-45.57-16.25-51.96-39.69"/>
  </g>
  <g id="LINE-174" data-name="LINE">
    <line class="cls-2" x1="610.36" y1="1865.21" x2="556.5" y2="1865.21"/>
  </g>
  <g id="ARC-74" data-name="ARC">
    <path class="cls-2" d="M657,1838.28c-9.62,16.66-27.4,26.93-46.64,26.93"/>
  </g>
  <g id="LINE-175" data-name="LINE">
    <line class="cls-2" x1="691.15" y1="1838.28" x2="657" y2="1838.28"/>
  </g>
  <g id="ARC-75" data-name="ARC">
    <path class="cls-2" d="M691.15,1784.42c14.87,0,26.93,12.06,26.93,26.93s-12.06,26.93-26.93,26.93"/>
  </g>
  <g id="LINE-176" data-name="LINE">
    <line class="cls-2" x1="657" y1="1784.42" x2="691.15" y2="1784.42"/>
  </g>
  <g id="ARC-76" data-name="ARC">
    <path class="cls-2" d="M610.36,1757.49c19.24,0,37.02,10.27,46.64,26.93"/>
  </g>
  <g id="LINE-177" data-name="LINE">
    <line class="cls-2" x1="556.5" y1="1757.49" x2="610.36" y2="1757.49"/>
  </g>
  <g id="ARC-77" data-name="ARC">
    <path class="cls-2" d="M504.54,1797.17c6.39-23.43,27.67-39.69,51.96-39.69"/>
  </g>
  <g id="LINE-178" data-name="LINE">
    <line class="cls-2" x1="489.18" y1="1797.17" x2="504.54" y2="1797.17"/>
  </g>
  <g id="LINE-179" data-name="LINE">
    <line class="cls-2" x1="489.18" y1="1754.65" x2="489.18" y2="1797.17"/>
  </g>
  <g id="LINE-180" data-name="LINE">
    <line class="cls-2" x1="475.01" y1="1754.65" x2="489.18" y2="1754.65"/>
  </g>
  <g id="LINE-181" data-name="LINE">
    <line class="cls-2" x1="475.01" y1="1868.04" x2="475.01" y2="1754.65"/>
  </g>
  <g id="LINE-182" data-name="LINE">
    <line class="cls-2" x1="489.18" y1="1868.04" x2="475.01" y2="1868.04"/>
  </g>
  <g id="LINE-183" data-name="LINE">
    <line class="cls-2" x1="489.18" y1="1825.52" x2="489.18" y2="1868.04"/>
  </g>
  <g id="LINE-184" data-name="LINE">
    <line class="cls-2" x1="504.54" y1="1825.52" x2="489.18" y2="1825.52"/>
  </g>
  <g id="LINE-185" data-name="LINE">
    <line class="cls-2" x1="1065.32" y1="1811.35" x2="1065.32" y2="1896.39"/>
  </g>
  <g id="CIRCLE-33" data-name="CIRCLE">
    <circle class="cls-2" cx="1720.83" cy="1754.65" r="31.18"/>
  </g>
  <g id="ARC-78" data-name="ARC">
    <path class="cls-2" d="M546.58,1683.79c-70.45,0-127.56,57.11-127.56,127.56s57.11,127.56,127.56,127.56"/>
  </g>
  <g id="LINE-186" data-name="LINE">
    <line class="cls-2" x1="1793.82" y1="1683.79" x2="546.58" y2="1683.79"/>
  </g>
  <g id="ARC-79" data-name="ARC">
    <path class="cls-2" d="M1793.82,1938.91c70.45,0,127.56-57.11,127.56-127.56s-57.11-127.56-127.56-127.56"/>
  </g>
  <g id="LINE-187" data-name="LINE">
    <line class="cls-2" x1="546.58" y1="1938.91" x2="1793.82" y2="1938.91"/>
  </g>
  <path class="cls-4" d="M465.86,991.53h-3.79v-1.56l3.89-5.23h1.52v5.38h1.24v1.4h-1.24v1.82h-1.62v-1.82ZM465.86,990.13v-3.07h-.04l-2.29,3.07h2.33Z"/>
  <path class="cls-4" d="M462.15,717.55h1.67c0,1.14.54,1.71,1.63,1.71.89,0,1.48-.53,1.48-1.31,0-1.15-.96-1.34-1.75-1.34h-.43v-1.24h.46c.72,0,1.62-.23,1.62-1.13,0-.68-.53-1.09-1.34-1.09-1,0-1.46.49-1.45,1.38h-1.65c.06-1.76,1.26-2.82,3.21-2.82,1.62,0,2.9.85,2.9,2.35,0,1.05-.64,1.63-1.21,1.8v.02c.88.22,1.4,1,1.4,2.04,0,1.81-1.57,2.76-3.26,2.76-1.99,0-3.3-1.16-3.26-3.14Z"/>
  <path class="cls-4" d="M465.45,442.46c1.12-.83,1.6-1.24,1.6-1.98s-.48-1.2-1.35-1.2c-.97,0-1.5.61-1.5,1.81h-1.74c-.06-1.98,1.2-3.27,3.32-3.27,1.83,0,3.01,1.07,3.01,2.65,0,1.33-.94,2-1.79,2.64-1.09.82-2.12,1.5-2.28,2.05h4.01v1.46h-6.4v-.23c0-1.52,1.71-2.88,3.13-3.93Z"/>
  <path class="cls-4" d="M464.54,159.83h-2.35v-1.21c1.3.02,2.51-.38,2.69-1.67h1.36v8.61h-1.7v-5.73Z"/>
  <path class="cls-4" d="M462.13,1261.68h1.74c.08.77.64,1.29,1.46,1.29.9,0,1.49-.67,1.49-1.65s-.55-1.61-1.48-1.61c-.62,0-1.04.23-1.38.68h-1.57l.83-4.77h4.75v1.52h-3.47l-.36,1.89.02.02c.47-.48,1.01-.66,1.68-.66,1.69,0,2.71,1.31,2.71,2.92,0,1.76-1.4,3.12-3.25,3.08-1.67-.04-3.15-.92-3.18-2.72Z"/>
  <path class="cls-4" d="M462.16,1535.39c0-1.39.35-2.91,1.37-3.77.53-.44,1.16-.74,2.16-.74,1.83,0,2.83.96,2.97,2.39h-1.74c-.07-.65-.48-1.02-1.27-1.02-1.31,0-1.83,1.44-1.81,2.64l.02.02c.5-.68,1.25-1.02,2.12-1.02,1.6,0,2.75,1.21,2.75,2.81,0,1.76-1.27,3.15-3.13,3.15-2.59,0-3.44-2.28-3.44-4.46ZM465.56,1538.41c.9,0,1.48-.64,1.48-1.58s-.5-1.62-1.48-1.62-1.51.67-1.51,1.59.56,1.61,1.51,1.61Z"/>
  <path class="cls-4" d="M466.08,1808.76h-3.98v-1.52h5.73v1.46c-1.76,1.54-2.72,4.91-2.75,7.15h-1.82c.19-2.48,1.22-5.17,2.82-7.09Z"/>
  <g>
    <polygon class="cls-1" points="1139.41 214.5 1139.41 106.46 1146.61 100.32 1146.61 96.02 1427.41 96.02 1427.41 247.11 1151.47 247.11 1145.47 240.07 1145.47 221.61 1139.41 214.5"/>
    <line class="cls-1" x1="1139.3" y1="214.37" x2="1139.41" y2="214.5"/>
    <line class="cls-1" x1="1151.47" y1="247.11" x2="1151.54" y2="247.19"/>
    <line class="cls-1" x1="1145.38" y1="239.96" x2="1145.47" y2="240.07"/>
    <line class="cls-1" x1="1139.37" y1="106.49" x2="1139.41" y2="106.46"/>
    <circle class="cls-1" cx="1153.49" cy="103.52" r="3.69"/>
    <circle class="cls-1" cx="1387.98" cy="103.52" r="3.69"/>
    <circle class="cls-1" cx="1384.3" cy="239.95" r="3.69"/>
    <circle class="cls-1" cx="1171.98" cy="239.95" r="3.69"/>
    <rect class="cls-1" x="1427.38" y="183.99" width="23.05" height="38.55" transform="translate(2877.82 406.54) rotate(180)"/>
    <rect class="cls-1" x="1427.34" y="106.46" width="5.83" height="28.86" transform="translate(2860.52 241.78) rotate(180)"/>
  </g>
  <g>
    <rect class="cls-1" x="763.52" y="75.34" width="127.56" height="127.56"/>
    <circle class="cls-1" cx="770.9" cy="196.25" r="3.69"/>
    <circle class="cls-1" cx="770.9" cy="82.05" r="3.69"/>
    <circle class="cls-1" cx="883.55" cy="196.25" r="3.69"/>
    <circle class="cls-1" cx="883.55" cy="82.05" r="3.69"/>
  </g>
  <g>
    <polygon class="cls-1" points="1574.7 198.52 1574.7 241.04 1566.2 241.04 1566.2 246.71 1506.67 246.71 1506.67 241.04 1498.16 241.04 1498.16 198.52 1506.67 198.52 1506.67 192.85 1566.2 192.85 1566.2 198.52 1574.7 198.52"/>
    <circle class="cls-1" cx="1554.28" cy="219.78" r="3.69"/>
    <circle class="cls-1" cx="1518.59" cy="219.78" r="3.69"/>
  </g>
  <rect class="cls-5" x="26.54" y="33.12" width="19.67" height="19.67"/>
  <rect class="cls-4" x="26.54" y="59.3" width="19.67" height="19.67"/>
  <text class="cls-3" transform="translate(60.54 52.58)"><tspan x="0" y="0">Schneiden</tspan></text>
  <text class="cls-3" transform="translate(60.54 78.63)"><tspan x="0" y="0">Gr</tspan><tspan class="cls-6" x="20.97" y="0">a</tspan><tspan x="31.3" y="0">vieren</tspan></text>
</svg>